inDegrees=yes
name=ik_tiny_file
DataType=double
version=3
OpenSimVersion=4.4-2022-07-23-0e9fedc
endheader
time	pelvis_tilt	pelvis_list	pelvis_rotation	pelvis_tx	pelvis_ty	pelvis_tz	hip_flexion_r	hip_adduction_r	hip_rotation_r	knee_angle_r	knee_angle_r_beta	ankle_angle_r	subtalar_angle_r	mtp_angle_r	hip_flexion_l	hip_adduction_l	hip_rotation_l	knee_angle_l	knee_angle_l_beta	ankle_angle_l	subtalar_angle_l	mtp_angle_l	lumbar_extension	lumbar_bending	lumbar_rotation	arm_flex_r	arm_add_r	arm_rot_r	elbow_flex_r	pro_sup_r	wrist_flex_r	wrist_dev_r	arm_flex_l	arm_add_l	arm_rot_l	elbow_flex_l	pro_sup_l	wrist_flex_l	wrist_dev_l
0	-169.8450214086061	-32.40354570392485	-38.51423781928688	0	0.9399999999999999	0	22.17168992901235	-8.874823327460799	0	43.11512407204572	0.7525008724630627	-2.672635725528704	0	0	22.17168992901235	-8.874823327460799	0	43.11512407204572	0.7525008724630627	-2.672635725528704	0	0	23.99722212993556	46.63992677321506	64.69888901435544	89.98792138726675	89.99741819248085	89.98792023560917	22.19025441536348	44.79582020094772	0	5.440936782770543	89.99345795473366	44.98599878863375	-2.606780512918329	37.67809703173559	44.79582020094772	0	5.440936782770543
0.03	-170.2014323391788	-32.39899409526539	-38.52736197748899	0	0.9399999999999999	0	22.1924218099382	-8.878079689875287	0	43.12693940001314	0.7527070888382972	-2.675301874940275	0	0	22.1924218099382	-8.878079689875287	0	43.12693940001314	0.7527070888382972	-2.675301874940275	0	0	24.55561178278936	46.42198307526099	64.54361194227575	89.98812135258639	89.99741950598376	89.98811949154771	22.27659627028246	44.79628697663099	0	5.438673210976217	89.99350386761755	45.13096812607665	-2.521408466997673	37.64876633474361	44.79628697663099	0	5.438673210976217
0.07000000000000001	-170.5044328594207	-32.36957651894928	-38.55016809614234	0	0.9399999999999999	0	22.20161723269518	-8.879520863655539	0	43.13218583224967	0.7527986563548072	-2.67648422130746	0	0	22.20161723269518	-8.879520863655539	0	43.13218583224967	0.7527986563548072	-2.67648422130746	0	0	25.00283420650571	46.20631862139378	64.486195617299	89.9882863785721	89.99742134094411	89.98828888255309	22.35128845610957	44.79649368657734	0	5.437673412391876	89.99354346539018	45.25690834498518	-2.45481838352974	37.63276263046092	44.79649368657734	0	5.437673412391876
0.1	-170.8610044204555	-32.36967165458	-38.53222644532353	0	0.9399999999999999	0	22.22212180199624	-8.882733154278883	0	43.14387647448567	0.7530026965534983	-2.679120918030234	0	0	22.22212180199624	-8.882733154278883	0	43.14387647448567	0.7530026965534983	-2.679120918030234	0	0	25.62510651226837	46.01031778173719	64.2304093147113	89.9884580407134	89.9974221388273	89.98845655915059	22.43870601712401	44.79695454988239	0	5.435447627251411	89.99358229308515	45.37217637461133	-2.384367236781114	37.5716691528865	44.79695454988239	0	5.435447627251411
0.13	-171.1539771593416	-32.34584215459471	-38.53877574527922	0	0.9399999999999999	0	22.242962635344	-8.885992210949864	0	43.15576204244357	0.7532101388478332	-2.681800704235961	0	0	22.242962635344	-8.885992210949864	0	43.15576204244357	0.7532101388478332	-2.681800704235961	0	0	26.11210651296068	45.8030285073806	64.10499808924108	89.9886120469709	89.99742295107271	89.98861102636405	22.51135649603158	44.79742241051566	0	5.433194520299415	89.9936149242051	45.48044806643382	-2.315123323503396	37.52925401593586	44.79742241051566	0	5.433194520299415
0.17	-171.4198237720424	-32.32319573267864	-38.54761686100667	0	0.9399999999999999	0	22.25494780767798	-8.887862702773788	0	43.16260247076508	0.7533295268442901	-2.683341609980929	0	0	22.25494780767798	-8.887862702773788	0	43.16260247076508	0.7533295268442901	-2.683341609980929	0	0	26.54625229604688	45.60332035651513	64.01027588843658	89.98876885471525	89.99742342183191	89.98876635345022	22.57903328311098	44.79769109488969	0	5.431904017469321	89.99364668508888	45.59868223618525	-2.247436392102553	37.48968242079474	44.79769109488969	0	5.431904017469321
0.2	-171.6901161402207	-32.31234245630824	-38.55407644442835	0	0.9399999999999999	0	22.2653644520081	-8.889486553345627	0	43.16854965854149	0.7534333248522229	-2.68468077753293	0	0	22.2653644520081	-8.889486553345627	0	43.16854965854149	0.7534333248522229	-2.68468077753293	0	0	26.96316566291732	45.41824210371638	63.90647277605623	89.98889202090187	89.99742434993439	89.98889237102762	22.65136285254644	44.79792443476608	0	5.430785089002544	89.9936757798806	45.71479936043671	-2.189427421342162	37.46356561844579	44.79792443476608	0	5.430785089002544
0.23	-171.944437529932	-32.30678342481299	-38.5496598263881	0	0.9399999999999999	0	22.27587848213441	-8.891124067634026	0	43.17455333164703	0.7535381087151279	-2.686032423604302	0	0	22.27587848213441	-8.891124067634026	0	43.17455333164703	0.7535381087151279	-2.686032423604302	0	0	27.36194457860642	45.23303206975783	63.80009733271621	89.98901800191479	89.99742547468189	89.98901834978614	22.71853196984734	44.79815981164039	0	5.429658032439669	89.99370470316957	45.82190705272546	-2.13035448855667	37.43988889114094	44.79815981164039	0	5.429658032439669
0.27	-172.172277063959	-32.32302487392139	-38.57337990310817	0	0.9399999999999999	0	22.28226890766972	-8.89211765690097	0	43.17820602463956	0.7536018602344121	-2.686853830472367	0	0	22.28226890766972	-8.89211765690097	0	43.17820602463956	0.7536018602344121	-2.686853830472367	0	0	27.68416515544647	45.08659917172947	63.7268998415605	89.98910289958312	89.99742699596148	89.98910354533216	22.81475024633953	44.7983026963709	0	5.428975143760407	89.99373804542704	45.87873083975783	-2.073186497384818	37.44773799817419	44.7983026963709	0	5.428975143760407
0.3	-172.4809579984411	-32.29120563071723	-38.5484766621939	0	0.9399999999999999	0	22.29966900848548	-8.894824357966948	0	43.18813858836791	0.7537752161746359	-2.689090779546368	0	0	22.29966900848548	-8.894824357966948	0	43.18813858836791	0.7537752161746359	-2.689090779546368	0	0	28.23033448677618	44.89869534785338	63.52706864675122	89.9892489781914	89.99742646996917	89.98924744994066	22.83365950563499	44.7986919485252	0	5.427115846904732	89.99375714019756	46.02556948295162	-2.007981526195323	37.3745650108419	44.7986919485252	0	5.427115846904732
0.33	-172.6795534702937	-32.28821552490425	-38.57260893740895	0	0.9399999999999999	0	22.30698312508198	-8.89595947675803	0	43.19231947326779	0.7538481863817859	-2.690030885343977	0	0	22.30698312508198	-8.89595947675803	0	43.19231947326779	0.7538481863817859	-2.690030885343977	0	0	28.53008905380839	44.74908786436177	63.47614726998501	89.9893439724177	89.99742706843674	89.98934395379642	22.91321719815328	44.79885529329536	0	5.426337618011581	89.99378124809121	46.09133932224061	-1.967650549972791	37.3672622918312	44.79885529329536	0	5.426337618011581
0.37	-172.953721383951	-32.27154306865539	-38.54992628910132	0	0.9399999999999999	0	22.32581108606242	-8.898882001760363	0	43.20306992491528	0.7540358171591111	-2.692451248695646	0	0	22.32581108606242	-8.898882001760363	0	43.20306992491528	0.7540358171591111	-2.692451248695646	0	0	28.98922694632084	44.58531169029966	63.30249144863567	89.98945327595777	89.99742723185639	89.98945211852711	22.94922901692049	44.79927589316952	0	5.424335517006996	89.99380397715693	46.20834112706565	-1.906801014479722	37.31548092583322	44.79927589316952	0	5.424335517006996
0.4	-173.1415386933642	-32.24387630324826	-38.5624392586716	0	0.9399999999999999	0	22.3378434782016	-8.900746224044781	0	43.20994498498248	0.754155809593556	-2.693997855253933	0	0	22.3378434782016	-8.900746224044781	0	43.20994498498248	0.754155809593556	-2.693997855253933	0	0	29.27704563544102	44.41863460094971	63.26708138480519	89.98955222325152	89.9974276984485	89.98955135452306	22.97989902654168	44.79954433791275	0	5.423060877683574	89.9938194315303	46.29338158193043	-1.853771227827968	37.28904033520589	44.79954433791275	0	5.423060877683574
0.43	-173.3193367400015	-32.2714594405644	-38.58043040840597	0	0.9399999999999999	0	22.34403814603417	-8.901704033365261	0	43.21348909394521	0.7542176659640052	-2.694793944058033	0	0	22.34403814603417	-8.901704033365261	0	43.21348909394521	0.7542176659640052	-2.694793944058033	0	0	29.51835009249418	44.3052753899026	63.2120845069507	89.98961430062454	89.9974288009514	89.98961433015123	23.06781409191516	44.79968233473492	0	5.422407040574171	89.99384377946289	46.34397145294709	-1.82050143626636	37.30561941060885	44.79968233473492	0	5.422407040574171
0.47	-173.5439895550941	-32.23605938054834	-38.57654078281739	0	0.9399999999999999	0	22.35314649268438	-8.903112578375946	0	43.21869673583983	0.754308556461331	-2.695964576803748	0	0	22.35314649268438	-8.903112578375946	0	43.21869673583983	0.754308556461331	-2.695964576803748	0	0	29.88549172942785	44.1503855464438	63.1281653394086	89.98972669052	89.99742824928965	89.98972744997306	23.06888476598332	44.79988528033855	0	5.421445883892472	89.99385498216154	46.46822616480095	-1.7751709354954	37.27074981595863	44.79988528033855	0	5.421445883892472
0.5	-173.7311152374315	-32.21932477333715	-38.57233135059094	0	0.9399999999999999	0	22.36297717688379	-8.904631719414532	0	43.22431746937544	0.7544066567679047	-2.697228030564756	0	0	22.36297717688379	-8.904631719414532	0	43.22431746937544	0.7544066567679047	-2.697228030564756	0	0	30.18080950752678	44.00288241592402	63.05368698507065	89.98980112586955	89.99742849468309	89.98980037372523	23.12564869991374	44.80010421790931	0	5.420410281624401	89.99387368401248	46.54649468730619	-1.730201951228163	37.24968023739935	44.80010421790931	0	5.420410281624401
0.53	-173.9090579895543	-32.21148788533434	-38.5768877720845	0	0.9399999999999999	0	22.3724533843472	-8.906094792576312	0	43.22973639941868	0.7545012349390945	-2.698445885791262	0	0	22.3724533843472	-8.906094792576312	0	43.22973639941868	0.7545012349390945	-2.698445885791262	0	0	30.48689257430413	43.87442909001154	62.96459455602231	89.98988978698392	89.99742786865433	89.98988967764187	23.15816942317327	44.80031513694223	0	5.419413961524872	89.99388605438442	46.61869852248937	-1.683529363424495	37.21969205245892	44.80031513694223	0	5.419413961524872
0.57	-174.0831779425265	-32.20528282210248	-38.57272741528618	0	0.9399999999999999	0	22.38272866123228	-8.907680026912981	0	43.23561236346553	0.7546037898584408	-2.699766417950232	0	0	22.38272866123228	-8.907680026912981	0	43.23561236346553	0.7546037898584408	-2.699766417950232	0	0	30.76715237734201	43.7559412961831	62.88845185847754	89.98994511902531	89.99742816454042	89.98994503585962	23.18743184407812	44.80054372941697	0	5.418335569693677	89.99390318519536	46.682994289073	-1.657524957323923	37.18799339288861	44.80054372941697	0	5.418335569693677
0.6	-174.2417339186336	-32.20871844651016	-38.57272608965141	0	0.9399999999999999	0	22.39527064985244	-8.909613503139695	0	43.24278359459169	0.7547289514530137	-2.701378267078536	0	0	22.39527064985244	-8.909613503139695	0	43.24278359459169	0.7547289514530137	-2.701378267078536	0	0	30.99911777220511	43.63603519245024	62.82052479270647	89.99001543805878	89.99742841371737	89.9900121503089	23.2344149101801	44.80082262041757	0	5.417021801549643	89.99391915835791	46.75380849024556	-1.61688264074261	37.17050825030066	44.80082262041757	0	5.417021801549643
0.63	-174.410244664689	-32.20596177284765	-38.57510517128198	0	0.9399999999999999	0	22.40821080252258	-8.911606203391489	0	43.25018337522631	0.7548581019890132	-2.703041234349993	0	0	22.40821080252258	-8.911606203391489	0	43.25018337522631	0.7548581019890132	-2.703041234349993	0	0	31.25543371507313	43.52018749171062	62.74777941437635	89.99008598691667	89.99742839496972	89.99008309790186	23.27816585904133	44.8011101610562	0	5.415669653616786	89.99393244397955	46.83038781845887	-1.570349143453161	37.16155208220128	44.8011101610562	0	5.415669653616786
0.67	-174.5683985733714	-32.19803915947553	-38.57667853703465	0	0.9399999999999999	0	22.42058483368615	-8.913509479982011	0	43.25726103615823	0.754981630475615	-2.704631373629262	0	0	22.42058483368615	-8.913509479982011	0	43.25726103615823	0.754981630475615	-2.704631373629262	0	0	31.48426134895533	43.41531546246433	62.6982666303742	89.99013686116028	89.99742903596788	89.9901336019815	23.29671438325195	44.80138490534516	0	5.414380004014326	89.99394518162826	46.8967788496408	-1.548552573433084	37.15748740846169	44.80138490534516	0	5.414380004014326
